<svg width="1461" height="1080" viewBox="0 0 1461 1080" fill="none" xmlns="http://www.w3.org/2000/svg">
<path d="M1382.31 393.699H1448.52C1453.37 393.699 1456.39 399.082 1454.21 403.418C1103.92 1097.29 1093.91 1076.44 973.416 1076.44C852.613 1076.44 639.388 1076.44 638.499 1076.44H347.826C307.138 1076.44 270.107 1080.61 146.18 880.983C142.793 875.522 148.669 868.678 154.725 870.821C332.336 933.786 530.336 766.229 726.376 397.211C727.506 395.078 729.745 393.699 732.162 393.699H800.006C804.992 393.699 808.131 399.061 805.697 403.408L787.169 436.46L750.153 501.907C748.082 505.566 749.962 510.208 754.053 511.179C771.736 515.376 791.321 516.559 810.526 509.068C832.193 500.625 860.453 448.374 888.902 397.323C890.049 395.266 892.215 393.989 894.57 393.98L961.128 393.739C966.125 393.721 969.286 399.103 966.835 403.459L910.395 503.724C908.079 507.839 910.821 512.984 915.527 513.378C986.477 519.323 987.758 508.854 1050.95 397.078C1052.11 395.033 1054.32 393.699 1056.67 393.699H1123.9C1128.9 393.699 1132.04 399.091 1129.57 403.439L1111.35 435.549L1073.07 503.741C1070.74 507.883 1073.53 513.053 1078.27 513.458C1144.2 519.102 1145.23 518.247 1213.59 397.095C1214.74 395.045 1216.96 393.699 1219.31 393.699H1285.22C1290.22 393.699 1293.36 399.082 1290.9 403.429L1272.23 436.46L1234.56 503.531C1232.24 507.655 1235 512.806 1239.72 513.179C1308.34 518.604 1314.23 508.509 1376.57 397.105C1377.73 395.045 1379.94 393.699 1382.31 393.699Z" fill="#273F4C" fill-opacity="0.992157"/>
<path fill-rule="evenodd" clip-rule="evenodd" d="M594.711 485.01C597.397 480.734 592.763 475.675 588.264 477.969C408.471 569.636 153.324 699.728 11.6012 642.281C5.10406 639.651 -2.76097 647.883 0.957814 653.825L36.5827 710.758C96.3567 803.084 103.083 813.223 103.09 813.234C103.09 813.229 103.09 813.229 103.09 813.229C191.937 857.688 287.882 820.369 373.604 755.306C446.442 694.261 520.624 603.021 594.711 485.01Z" fill="#FF6E40"/>
<path opacity="0.99" d="M1094.36 188.631C1094.39 189.025 1094.08 191.062 1084.68 191.062C1075.18 191.062 1068.32 189.016 1067.19 188.661C1067.08 188.627 1067 188.557 1066.94 188.462L1049.42 160.288L1049.41 160.284L1038.53 142.785C1024.24 121.435 1003.87 102.308 946.281 101.726H859.143L913.674 101.714H549.867C481.732 101.714 481.589 88.734 443.051 157.254L265.95 468.01C265.937 468.034 265.921 468.056 265.905 468.077C189.233 562.048 -2.19324 537.142 18.0095 506.365L121.909 343.22L225.73 180.074C349.608 -18.6334 355.519 0.498835 455.076 0.49885H893.764C966.69 0.49885 1000.26 39.0491 1000.77 39.6268C1000.77 39.6268 1000.78 39.6435 1000.79 39.6637L1094.31 188.51C1094.34 188.547 1094.35 188.587 1094.36 188.631Z" fill="#273F4C" fill-opacity="0.992157"/>
</svg>
