<svg width="30" height="30" viewBox="0 0 30 30" fill="none" xmlns="http://www.w3.org/2000/svg">
<g clip-path="url(#clip0)">
<path d="M28.6233 4.03671L24.5868 0.000244141L16.5442 8.04277L20.4653 11.9639C19.4002 13.5612 18.1197 15.1113 16.6518 16.5792C15.1552 18.0757 13.5761 19.3757 11.9493 20.4511L8.04258 16.5444L0 24.5869L4.13016 28.717L4.15529 28.7412C5.84549 30.303 8.69865 30.4152 12.1892 29.0573C15.4632 27.7836 19.0092 25.3392 22.1741 22.1744C25.3768 18.9716 27.8354 15.3887 29.0969 12.0854C29.6999 10.5065 30 9.06277 30 7.80078C30 6.23726 29.5393 4.9527 28.6233 4.03671ZM19.0455 8.04277L24.5868 2.50161L26.3089 4.22374L20.7677 9.7649L19.0455 8.04277ZM2.50137 24.5869L8.04258 19.0458L9.76465 20.7679L4.2235 26.3091L2.50137 24.5869ZM27.4446 11.4543C26.27 14.5302 23.9541 17.8931 20.9235 20.9237C17.9281 23.919 14.5985 26.2222 11.548 27.4089C8.8616 28.454 6.6668 28.5024 5.48262 27.5513L11.0154 22.0185L11.6992 22.7023L12.2955 22.3306C14.2444 21.1158 16.1309 19.6015 17.9025 17.8299C19.644 16.0884 21.1387 14.233 22.345 12.3151L22.7207 11.7178L22.0184 11.0155L27.5487 5.4852C28.4878 6.65673 28.4554 8.80771 27.4446 11.4543Z" fill="#27424F"/>
</g>
<defs>
<clipPath id="clip0">
<rect width="30" height="30" fill="white"/>
</clipPath>
</defs>
</svg>
