<svg width="512" height="512" viewBox="0 0 512 512" fill="none" xmlns="http://www.w3.org/2000/svg">
<path d="M488.504 68.8929L419.614 0.00390625L282.354 137.263L349.274 204.183C331.097 231.445 309.243 257.899 284.19 282.951C258.649 308.492 231.698 330.679 203.934 349.032L137.26 282.358L0 419.617L70.488 490.104L70.917 490.517C99.763 517.171 148.457 519.086 208.029 495.911C263.905 474.174 324.424 432.456 378.438 378.442C433.098 323.782 475.057 262.633 496.587 206.257C506.879 179.311 512 154.671 512 133.133C512 106.449 504.137 84.5259 488.504 68.8929ZM325.044 137.263L419.614 42.6939L449.005 72.0849L354.435 166.654L325.044 137.263ZM42.69 419.617L137.26 325.048L166.65 354.439L72.081 449.008L42.69 419.617ZM468.388 195.487C448.341 247.981 408.816 305.375 357.094 357.097C305.973 408.218 249.148 447.525 197.086 467.779C151.238 485.615 113.78 486.44 93.57 470.209L187.996 375.783L199.666 387.453L209.843 381.109C243.105 360.376 275.301 334.532 305.536 304.296C335.258 274.575 360.767 242.909 381.355 210.178L387.767 199.984L375.781 187.998L470.165 93.6139C486.192 113.608 485.638 150.318 468.388 195.487Z" fill="#27424F"/>
</svg>
