<svg width="30" height="30" viewBox="0 0 30 30" fill="none" xmlns="http://www.w3.org/2000/svg">
<path d="M24.3694 20.5275C22.6107 20.5275 21.074 21.4917 20.2571 22.9186L10.006 16.811C10.2379 16.2527 10.3666 15.6412 10.3666 15C10.3666 14.3588 10.2378 13.7473 10.0059 13.189L20.2571 7.08141C21.074 8.50828 22.6107 9.47256 24.3694 9.47256C26.981 9.47256 29.1057 7.34789 29.1057 4.73631C29.1057 2.12473 26.9811 0 24.3694 0C21.7578 0 19.6331 2.12467 19.6331 4.73625C19.6331 4.95475 19.6493 5.16949 19.678 5.38025L9.04029 11.7181C8.17808 10.8226 6.96859 10.2637 5.63023 10.2637C3.01871 10.2637 0.894043 12.3884 0.894043 15C0.894043 17.6116 3.01871 19.7363 5.63023 19.7363C6.96859 19.7363 8.17814 19.1774 9.04029 18.2818L19.678 24.6197C19.6492 24.8305 19.633 25.0452 19.633 25.2637C19.633 27.8753 21.7577 30 24.3693 30C26.9809 30 29.1055 27.8753 29.1055 25.2637C29.1055 22.6522 26.9811 20.5275 24.3694 20.5275ZM24.3694 1.75781C26.0117 1.75781 27.3478 3.09393 27.3478 4.73625C27.3478 6.37857 26.0117 7.71469 24.3694 7.71469C22.727 7.71469 21.3909 6.37857 21.3909 4.73625C21.391 3.09393 22.7271 1.75781 24.3694 1.75781ZM5.63029 17.9784C3.98803 17.9784 2.65191 16.6423 2.65191 15C2.65191 13.3577 3.98803 12.0216 5.63029 12.0216C7.27263 12.0216 8.60875 13.3577 8.60875 15C8.60875 16.6423 7.27263 17.9784 5.63029 17.9784ZM24.3694 28.2422C22.727 28.2422 21.3909 26.9061 21.3909 25.2637C21.3909 23.6214 22.727 22.2853 24.3694 22.2853C26.0117 22.2853 27.3478 23.6214 27.3478 25.2637C27.3478 26.9061 26.0117 28.2422 24.3694 28.2422Z" fill="#27424F"/>
</svg>
